# Blender 3.4.0
# www.blender.org
o Untitled.002
v 0.300000 0.200000 -0.100000
v 0.400000 0.200000 -0.100000
v 0.400000 0.300000 -0.200000
v 0.400000 0.400000 -0.200000
v 0.400000 0.400000 -0.300000
v 0.400000 0.400000 -0.400000
v 0.500000 0.200000 -0.300000
v 0.500000 0.400000 -0.200000
v 0.400000 0.300000 -0.100000
v 0.400000 0.400000 -0.100000
v 0.300000 0.200000 -0.200000
v 0.400000 0.200000 -0.200000
v 0.500000 0.200000 -0.200000
v 0.500000 0.300000 -0.200000
v 0.200000 0.300000 -0.300000
v 0.400000 0.200000 -0.300000
v 0.300000 0.300000 -0.400000
v 0.500000 0.300000 -0.100000
v 0.300000 0.300000 -0.300000
v 0.200000 0.300000 -0.400000
v 0.500000 0.400000 -0.100000
v 0.300000 0.400000 -0.300000
v 0.300000 0.400000 -0.400000
v 0.300000 0.400000 -0.200000
v 0.300000 0.400000 -0.100000
v 0.200000 0.400000 -0.300000
v 0.250000 0.400000 -0.300000
v 0.500000 0.400000 -0.233333
v 0.500000 0.400000 -0.300000
v 0.200000 0.400000 -0.275000
v 0.200000 0.400000 -0.260000
v 0.200000 0.400000 -0.200000
v 0.433333 0.400000 -0.300000
v 0.333333 0.400000 -0.100000
v 0.350000 0.400000 -0.100000
v 0.242857 0.400000 -0.200000
v 0.250000 0.400000 -0.200000
v 0.260000 0.400000 -0.200000
v 0.300000 0.400000 -0.133333
v 0.233333 0.200000 -0.400000
v 0.250000 0.200000 -0.400000
v 0.300000 0.200000 -0.400000
v 0.200000 0.200000 -0.250000
v 0.350000 0.200000 -0.400000
v 0.366667 0.200000 -0.400000
v 0.200000 0.200000 -0.300000
v 0.400000 0.200000 -0.366667
v 0.400000 0.200000 -0.400000
v 0.200000 0.200000 -0.350000
v 0.200000 0.200000 -0.400000
v 0.271429 0.200000 -0.200000
v 0.283333 0.200000 -0.200000
v 0.200000 0.200000 -0.225000
v 0.200000 0.200000 -0.220000
v 0.200000 0.200000 -0.200000
vn -0.0000 -1.0000 -0.0000
vn -1.0000 -0.0000 -0.0000
vn 1.0000 -0.0000 -0.0000
vn -0.0000 -0.0000 1.0000
vn -0.0000 1.0000 -0.0000
vn -0.0000 -0.0000 -1.0000
vt 0.396484 0.500000
vt 0.396484 0.500000
vt 0.396484 0.500000
vt 0.396484 0.500000
vt 0.396484 0.500000
vt 0.396484 0.500000
vt 0.396484 0.500000
vt 0.396484 0.500000
vt 0.396484 0.500000
vt 0.396484 0.500000
vt 0.396484 0.500000
vt 0.396484 0.500000
vt 0.396484 0.500000
vt 0.396484 0.500000
vt 0.396484 0.500000
vt 0.396484 0.500000
vt 0.396484 0.500000
vt 0.396484 0.500000
vt 0.396484 0.500000
vt 0.396484 0.500000
vt 0.396484 0.500000
vt 0.396484 0.500000
vt 0.396484 0.500000
vt 0.396484 0.500000
vt 0.396484 0.500000
vt 0.396484 0.500000
vt 0.396484 0.500000
vt 0.396484 0.500000
vt 0.396484 0.500000
vt 0.396484 0.500000
vt 0.396484 0.500000
vt 0.396484 0.500000
vt 0.396484 0.500000
vt 0.396484 0.500000
vt 0.396484 0.500000
vt 0.396484 0.500000
vt 0.396484 0.500000
vt 0.396484 0.500000
vt 0.396484 0.500000
vt 0.396484 0.500000
vt 0.396484 0.500000
vt 0.396484 0.500000
vt 0.396484 0.500000
vt 0.396484 0.500000
vt 0.396484 0.500000
vt 0.396484 0.500000
vt 0.396484 0.500000
vt 0.396484 0.500000
vt 0.396484 0.500000
vt 0.396484 0.500000
vt 0.396484 0.500000
vt 0.396484 0.500000
vt 0.396484 0.500000
vt 0.396484 0.500000
vt 0.396484 0.500000
s 0
f 52/52/1 11/11/1 1/1/1 51/51/1
f 22/22/2 17/17/2 19/19/2
f 23/23/2 17/17/2 22/22/2
f 39/39/2 11/11/2 1/1/2 25/25/2
f 24/24/2 11/11/2 39/39/2
f 2/2/3 12/12/3 9/9/3
f 9/9/3 12/12/3 3/3/3
f 13/13/3 7/7/3 14/14/3
f 18/18/3 14/14/3 21/21/3
f 14/14/3 7/7/3 8/8/3
f 21/21/3 14/14/3 8/8/3
f 8/8/3 7/7/3 28/28/3
f 28/28/3 7/7/3 29/29/3
f 18/18/4 10/10/4 9/9/4
f 21/21/4 10/10/4 18/18/4
f 24/24/4 38/38/4 11/11/4
f 13/13/4 3/3/4 12/12/4
f 14/14/4 3/3/4 13/13/4
f 37/37/5 36/36/5 39/39/5 24/24/5 38/38/5
f 16/16/6 5/5/6 7/7/6
f 50/50/6 20/20/6 40/40/6
f 40/40/6 20/20/6 41/41/6
f 41/41/6 20/20/6 17/17/6 42/42/6
f 42/42/6 17/17/6 44/44/6
f 45/45/6 23/23/6 6/6/6 48/48/6
f 51/51/1 55/55/1 54/54/1 53/53/1 43/43/1 46/46/1 49/49/1 50/50/1 40/40/1 41/41/1 42/42/1 44/44/1 45/45/1 48/48/1 47/47/1 16/16/1 12/12/1 11/11/1 52/52/1
f 11/11/1 2/2/1 1/1/1
f 12/12/1 2/2/1 11/11/1
f 16/16/1 13/13/1 12/12/1
f 7/7/1 13/13/1 16/16/1
f 3/3/1 18/18/1 9/9/1
f 14/14/1 18/18/1 3/3/1
f 34/34/5 35/35/5 10/10/5 4/4/5 8/8/5 28/28/5 29/29/5 33/33/5 5/5/5 22/22/5 27/27/5 26/26/5 30/30/5 31/31/5 32/32/5 36/36/5 37/37/5 38/38/5 24/24/5 39/39/5 25/25/5
f 15/15/5 19/19/5 20/20/5
f 20/20/5 19/19/5 17/17/5
f 10/10/5 21/21/5 4/4/5
f 4/4/5 21/21/5 8/8/5
f 22/22/5 5/5/5 23/23/5
f 23/23/5 5/5/5 6/6/5
f 11/11/4 38/38/4 37/37/4 52/52/4
f 52/52/4 37/37/4 36/36/4 51/51/4
f 9/9/4 35/35/4 34/34/4 2/2/4
f 51/51/4 36/36/4 32/32/4 55/55/4
f 7/7/6 33/33/6 29/29/6
f 15/15/6 26/26/6 27/27/6 19/19/6
f 2/2/4 34/34/4 25/25/4 1/1/4
f 19/19/6 27/27/6 22/22/6
f 7/7/6 5/5/6 33/33/6
f 9/9/4 10/10/4 35/35/4
f 32/32/2 31/31/2 54/54/2 55/55/2
f 31/31/2 30/30/2 53/53/2 54/54/2
f 20/20/2 50/50/2 49/49/2 15/15/2
f 5/5/3 47/47/3 48/48/3 6/6/3
f 15/15/2 49/49/2 46/46/2
f 17/17/6 23/23/6 45/45/6 44/44/6
f 15/15/2 46/46/2 43/43/2
f 26/26/2 15/15/2 43/43/2 53/53/2 30/30/2
f 5/5/3 16/16/3 47/47/3
