# MagicaVoxel @ Ephtracy

# group
o 

# material
mtllib Human2.mtl
usemtl palette

# normals
vn -1 0 0
vn 1 0 0
vn 0 0 1
vn 0 0 -1
vn 0 -1 0
vn 0 1 0

# texcoords
vt 0.150391 0.5
vt 0.154297 0.5
vt 0.283203 0.5
vt 0.810547 0.5
vt 0.833984 0.5
vt 0.904297 0.5
vt 0.912109 0.5
vt 0.986328 0.5

# verts
v 0.1 0.9 0.8
v 0.1 0.9 0.7
v 0.1 1 0.8
v 0.1 1 0.7
v 0.2 1 0.8
v 0.2 1 0.7
v 0.2 1.1 0.8
v 0.2 1.1 0.7
v 0.3 0.8 0.5
v 0.3 0.8 0.3
v 0.3 0.9 0.6
v 0.3 0.9 0.5
v 0.3 0.9 0.3
v 0.3 0.9 0.2
v 0.3 1.1 0.8
v 0.3 1.1 0.7
v 0.3 1.2 0.8
v 0.3 1.2 0.7
v 0.3 1.3 0.6
v 0.3 1.3 0.5
v 0.3 1.3 0.3
v 0.3 1.3 0.2
v 0.3 1.4 0.5
v 0.3 1.4 0.3
v 0.4 0 0.6
v 0.4 0 0.5
v 0.4 0 0.3
v 0.4 0 0.2
v 0.4 0.1 0.6
v 0.4 0.1 0.5
v 0.4 0.1 0.3
v 0.4 0.1 0.2
v 0.4 0.5 0.6
v 0.4 0.5 0.5
v 0.4 0.5 0.3
v 0.4 0.5 0.2
v 0.4 0.7 0.5
v 0.4 0.7 0.3
v 0.4 0.8 0.6
v 0.4 0.8 0.5
v 0.4 0.8 0.3
v 0.4 0.8 0.2
v 0.4 0.9 0.6
v 0.4 0.9 0.5
v 0.4 0.9 0.3
v 0.4 0.9 0.2
v 0.4 1.2 0.8
v 0.4 1.2 0.7
v 0.4 1.3 0.8
v 0.4 1.3 0.7
v 0.4 1.3 0.6
v 0.4 1.3 0.5
v 0.4 1.3 0.3
v 0.4 1.3 0.2
v 0.4 1.3 0.1
v 0.4 1.4 0.7
v 0.4 1.4 0.6
v 0.4 1.4 0.5
v 0.4 1.4 0.3
v 0.4 1.4 0.2
v 0.4 1.4 0.1
v 0.4 1.6 0.5
v 0.4 1.6 0.3
v 0.4 1.7 0.6
v 0.4 1.7 0.2
v 0.5 0 0.2
v 0.5 0 0.1
v 0.5 0.1 0.2
v 0.5 0.1 0.1
v 0.5 1.2 0.1
v 0.5 1.2 -5.96046e-08
v 0.5 1.3 0.1
v 0.5 1.3 -5.96046e-08
v 0.7 1.1 -5.96046e-08
v 0.7 1.1 -0.1
v 0.7 1.2 -5.96046e-08
v 0.7 1.2 -0.1
v 0.7 1.8 -5.96046e-08
v 0.7 1.8 -0.1
v 0.7 1.9 -5.96046e-08
v 0.7 1.9 -0.1
v 0.8 1.7 -5.96046e-08
v 0.8 1.7 -0.1
v 0.8 1.8 -5.96046e-08
v 0.8 1.8 -0.1
v 0.9 1 -5.96046e-08
v 0.9 1 -0.1
v 0.9 1.1 -5.96046e-08
v 0.9 1.1 -0.1
v 0.9 1.2 0.1
v 0.9 1.2 -5.96046e-08
v 0.9 1.2 -0.1
v 0.9 1.2 -0.2
v 0.9 1.3 0.1
v 0.9 1.3 -5.96046e-08
v 0.9 1.3 -0.1
v 0.9 1.3 -0.2
v 0.9 1.7 -5.96046e-08
v 0.9 1.7 -0.1
v 0.2 0.9 0.8
v 0.2 0.9 0.7
v 0.2 1 0.8
v 0.2 1 0.7
v 0.3 1 0.8
v 0.3 1 0.7
v 0.3 1.1 0.8
v 0.3 1.1 0.7
v 0.4 1.1 0.8
v 0.4 1.1 0.7
v 0.4 1.2 0.8
v 0.4 1.2 0.7
v 0.5 0 0.3
v 0.5 0 0.2
v 0.5 0.1 0.6
v 0.5 0.1 0.5
v 0.5 0.1 0.3
v 0.5 0.1 0.2
v 0.5 0.5 0.6
v 0.5 0.5 0.5
v 0.5 0.5 0.3
v 0.5 0.5 0.2
v 0.5 0.7 0.5
v 0.5 0.7 0.3
v 0.5 0.8 0.6
v 0.5 0.8 0.5
v 0.5 0.8 0.3
v 0.5 0.8 0.2
v 0.5 0.9 0.6
v 0.5 0.9 0.5
v 0.5 0.9 0.3
v 0.5 0.9 0.2
v 0.5 1.2 0.8
v 0.5 1.2 0.7
v 0.5 1.3 0.8
v 0.5 1.3 0.7
v 0.5 1.3 0.6
v 0.5 1.3 0.5
v 0.5 1.3 0.3
v 0.5 1.3 0.2
v 0.5 1.3 0.1
v 0.5 1.4 0.7
v 0.5 1.4 0.6
v 0.5 1.4 0.5
v 0.5 1.4 0.3
v 0.5 1.4 0.2
v 0.5 1.4 0.1
v 0.5 1.6 0.5
v 0.5 1.6 0.3
v 0.5 1.7 0.6
v 0.5 1.7 0.2
v 0.6 0 0.2
v 0.6 0 0.1
v 0.6 0.1 0.2
v 0.6 0.1 0.1
v 0.6 0.8 0.5
v 0.6 0.8 0.3
v 0.6 0.9 0.6
v 0.6 0.9 0.5
v 0.6 0.9 0.3
v 0.6 0.9 0.2
v 0.6 1.3 0.6
v 0.6 1.3 0.5
v 0.6 1.3 0.3
v 0.6 1.3 0.2
v 0.6 1.4 0.5
v 0.6 1.4 0.3
v 0.7 0 0.6
v 0.7 0 0.5
v 0.7 0.1 0.6
v 0.7 0.1 0.5
v 0.7 1.2 0.1
v 0.7 1.2 -5.96046e-08
v 0.7 1.3 0.1
v 0.7 1.3 -5.96046e-08
v 0.8 1.8 -5.96046e-08
v 0.8 1.8 -0.1
v 0.8 1.9 -5.96046e-08
v 0.8 1.9 -0.1
v 0.9 1.7 -5.96046e-08
v 0.9 1.7 -0.1
v 0.9 1.8 -5.96046e-08
v 0.9 1.8 -0.1
v 1 1 -5.96046e-08
v 1 1 -0.1
v 1 1.2 0.1
v 1 1.2 -5.96046e-08
v 1 1.2 -0.1
v 1 1.2 -0.2
v 1 1.3 0.1
v 1 1.3 -5.96046e-08
v 1 1.3 -0.1
v 1 1.3 -0.2
v 1 1.7 -5.96046e-08
v 1 1.7 -0.1
v 0.1 0.9 0.8
v 0.1 1 0.8
v 0.2 0.9 0.8
v 0.2 1 0.8
v 0.2 1.1 0.8
v 0.3 1 0.8
v 0.3 1.1 0.8
v 0.3 1.2 0.8
v 0.4 1.1 0.8
v 0.4 1.2 0.8
v 0.4 1.3 0.8
v 0.5 1.2 0.8
v 0.5 1.3 0.8
v 0.4 1.3 0.7
v 0.4 1.4 0.7
v 0.5 1.3 0.7
v 0.5 1.4 0.7
v 0.3 0.9 0.6
v 0.3 1.3 0.6
v 0.4 0 0.6
v 0.4 0.1 0.6
v 0.4 0.5 0.6
v 0.4 0.8 0.6
v 0.4 0.9 0.6
v 0.4 1.3 0.6
v 0.4 1.4 0.6
v 0.4 1.7 0.6
v 0.5 0.1 0.6
v 0.5 0.5 0.6
v 0.5 0.8 0.6
v 0.5 0.9 0.6
v 0.5 1.3 0.6
v 0.5 1.4 0.6
v 0.5 1.7 0.6
v 0.6 0.9 0.6
v 0.6 1.3 0.6
v 0.7 0 0.6
v 0.7 0.1 0.6
v 0.3 0.8 0.5
v 0.3 0.9 0.5
v 0.3 1.3 0.5
v 0.3 1.4 0.5
v 0.4 0.8 0.5
v 0.4 0.9 0.5
v 0.4 1.3 0.5
v 0.4 1.4 0.5
v 0.5 0.8 0.5
v 0.5 0.9 0.5
v 0.5 1.3 0.5
v 0.5 1.4 0.5
v 0.6 0.8 0.5
v 0.6 0.9 0.5
v 0.6 1.3 0.5
v 0.6 1.4 0.5
v 0.4 0 0.3
v 0.4 0.1 0.3
v 0.4 0.5 0.3
v 0.4 0.7 0.3
v 0.5 0 0.3
v 0.5 0.1 0.3
v 0.5 0.5 0.3
v 0.5 0.7 0.3
v 0.5 0 0.2
v 0.5 0.1 0.2
v 0.6 0 0.2
v 0.6 0.1 0.2
v 0.5 1.2 0.1
v 0.5 1.3 0.1
v 0.7 1.2 0.1
v 0.7 1.3 0.1
v 0.9 1.2 0.1
v 0.9 1.3 0.1
v 1 1.2 0.1
v 1 1.3 0.1
v 0.7 1.1 -5.96046e-08
v 0.7 1.2 -5.96046e-08
v 0.7 1.8 -5.96046e-08
v 0.7 1.9 -5.96046e-08
v 0.8 1.7 -5.96046e-08
v 0.8 1.8 -5.96046e-08
v 0.8 1.9 -5.96046e-08
v 0.9 1 -5.96046e-08
v 0.9 1.1 -5.96046e-08
v 0.9 1.2 -5.96046e-08
v 0.9 1.3 -5.96046e-08
v 0.9 1.7 -5.96046e-08
v 0.9 1.8 -5.96046e-08
v 1 1 -5.96046e-08
v 1 1.2 -5.96046e-08
v 1 1.3 -5.96046e-08
v 1 1.7 -5.96046e-08
v 0.1 0.9 0.7
v 0.1 1 0.7
v 0.2 0.9 0.7
v 0.2 1 0.7
v 0.2 1.1 0.7
v 0.3 1 0.7
v 0.3 1.1 0.7
v 0.3 1.2 0.7
v 0.4 1.1 0.7
v 0.4 1.2 0.7
v 0.4 1.3 0.7
v 0.5 1.2 0.7
v 0.5 1.3 0.7
v 0.4 0 0.5
v 0.4 0.1 0.5
v 0.4 0.5 0.5
v 0.4 0.7 0.5
v 0.5 0.1 0.5
v 0.5 0.5 0.5
v 0.5 0.7 0.5
v 0.7 0 0.5
v 0.7 0.1 0.5
v 0.3 0.8 0.3
v 0.3 0.9 0.3
v 0.3 1.3 0.3
v 0.3 1.4 0.3
v 0.4 0.8 0.3
v 0.4 0.9 0.3
v 0.4 1.3 0.3
v 0.4 1.4 0.3
v 0.5 0.8 0.3
v 0.5 0.9 0.3
v 0.5 1.3 0.3
v 0.5 1.4 0.3
v 0.6 0.8 0.3
v 0.6 0.9 0.3
v 0.6 1.3 0.3
v 0.6 1.4 0.3
v 0.3 0.9 0.2
v 0.3 1.3 0.2
v 0.4 0 0.2
v 0.4 0.1 0.2
v 0.4 0.5 0.2
v 0.4 0.8 0.2
v 0.4 0.9 0.2
v 0.4 1.3 0.2
v 0.4 1.4 0.2
v 0.4 1.7 0.2
v 0.5 0 0.2
v 0.5 0.1 0.2
v 0.5 0.5 0.2
v 0.5 0.8 0.2
v 0.5 0.9 0.2
v 0.5 1.3 0.2
v 0.5 1.4 0.2
v 0.5 1.7 0.2
v 0.6 0.9 0.2
v 0.6 1.3 0.2
v 0.4 1.3 0.1
v 0.4 1.4 0.1
v 0.5 0 0.1
v 0.5 0.1 0.1
v 0.5 1.3 0.1
v 0.5 1.4 0.1
v 0.6 0 0.1
v 0.6 0.1 0.1
v 0.5 1.2 -5.96046e-08
v 0.5 1.3 -5.96046e-08
v 0.7 1.2 -5.96046e-08
v 0.7 1.3 -5.96046e-08
v 0.7 1.1 -0.1
v 0.7 1.2 -0.1
v 0.7 1.8 -0.1
v 0.7 1.9 -0.1
v 0.8 1.7 -0.1
v 0.8 1.8 -0.1
v 0.8 1.9 -0.1
v 0.9 1 -0.1
v 0.9 1.1 -0.1
v 0.9 1.2 -0.1
v 0.9 1.3 -0.1
v 0.9 1.7 -0.1
v 0.9 1.8 -0.1
v 1 1 -0.1
v 1 1.2 -0.1
v 1 1.3 -0.1
v 1 1.7 -0.1
v 0.9 1.2 -0.2
v 0.9 1.3 -0.2
v 1 1.2 -0.2
v 1 1.3 -0.2
v 0.4 0 0.6
v 0.7 0 0.6
v 0.4 0 0.5
v 0.7 0 0.5
v 0.4 0 0.3
v 0.5 0 0.3
v 0.4 0 0.2
v 0.5 0 0.2
v 0.6 0 0.2
v 0.5 0 0.1
v 0.6 0 0.1
v 0.4 0.7 0.5
v 0.5 0.7 0.5
v 0.4 0.7 0.3
v 0.5 0.7 0.3
v 0.3 0.8 0.5
v 0.4 0.8 0.5
v 0.5 0.8 0.5
v 0.6 0.8 0.5
v 0.3 0.8 0.3
v 0.4 0.8 0.3
v 0.5 0.8 0.3
v 0.6 0.8 0.3
v 0.1 0.9 0.8
v 0.2 0.9 0.8
v 0.1 0.9 0.7
v 0.2 0.9 0.7
v 0.3 0.9 0.6
v 0.4 0.9 0.6
v 0.5 0.9 0.6
v 0.6 0.9 0.6
v 0.3 0.9 0.5
v 0.4 0.9 0.5
v 0.5 0.9 0.5
v 0.6 0.9 0.5
v 0.3 0.9 0.3
v 0.4 0.9 0.3
v 0.5 0.9 0.3
v 0.6 0.9 0.3
v 0.3 0.9 0.2
v 0.4 0.9 0.2
v 0.5 0.9 0.2
v 0.6 0.9 0.2
v 0.2 1 0.8
v 0.3 1 0.8
v 0.2 1 0.7
v 0.3 1 0.7
v 0.9 1 -5.96046e-08
v 1 1 -5.96046e-08
v 0.9 1 -0.1
v 1 1 -0.1
v 0.3 1.1 0.8
v 0.4 1.1 0.8
v 0.3 1.1 0.7
v 0.4 1.1 0.7
v 0.7 1.1 -5.96046e-08
v 0.9 1.1 -5.96046e-08
v 0.7 1.1 -0.1
v 0.9 1.1 -0.1
v 0.4 1.2 0.8
v 0.5 1.2 0.8
v 0.4 1.2 0.7
v 0.5 1.2 0.7
v 0.5 1.2 0.1
v 0.7 1.2 0.1
v 0.9 1.2 0.1
v 1 1.2 0.1
v 0.5 1.2 -5.96046e-08
v 0.7 1.2 -5.96046e-08
v 0.9 1.2 -5.96046e-08
v 1 1.2 -5.96046e-08
v 0.9 1.2 -0.1
v 1 1.2 -0.1
v 0.9 1.2 -0.2
v 1 1.2 -0.2
v 0.4 1.3 0.7
v 0.5 1.3 0.7
v 0.4 1.3 0.6
v 0.5 1.3 0.6
v 0.4 1.3 0.2
v 0.5 1.3 0.2
v 0.4 1.3 0.1
v 0.5 1.3 0.1
v 0.8 1.7 -5.96046e-08
v 0.9 1.7 -5.96046e-08
v 0.8 1.7 -0.1
v 0.9 1.7 -0.1
v 0.7 1.8 -5.96046e-08
v 0.8 1.8 -5.96046e-08
v 0.7 1.8 -0.1
v 0.8 1.8 -0.1
v 0.5 0.1 0.6
v 0.7 0.1 0.6
v 0.5 0.1 0.5
v 0.7 0.1 0.5
v 0.5 0.1 0.2
v 0.6 0.1 0.2
v 0.5 0.1 0.1
v 0.6 0.1 0.1
v 0.1 1 0.8
v 0.2 1 0.8
v 0.1 1 0.7
v 0.2 1 0.7
v 0.2 1.1 0.8
v 0.3 1.1 0.8
v 0.2 1.1 0.7
v 0.3 1.1 0.7
v 0.3 1.2 0.8
v 0.4 1.2 0.8
v 0.3 1.2 0.7
v 0.4 1.2 0.7
v 0.7 1.2 -5.96046e-08
v 0.9 1.2 -5.96046e-08
v 0.7 1.2 -0.1
v 0.9 1.2 -0.1
v 0.4 1.3 0.8
v 0.5 1.3 0.8
v 0.4 1.3 0.7
v 0.5 1.3 0.7
v 0.3 1.3 0.6
v 0.4 1.3 0.6
v 0.5 1.3 0.6
v 0.6 1.3 0.6
v 0.3 1.3 0.5
v 0.4 1.3 0.5
v 0.5 1.3 0.5
v 0.6 1.3 0.5
v 0.3 1.3 0.3
v 0.4 1.3 0.3
v 0.5 1.3 0.3
v 0.6 1.3 0.3
v 0.3 1.3 0.2
v 0.4 1.3 0.2
v 0.5 1.3 0.2
v 0.6 1.3 0.2
v 0.5 1.3 0.1
v 0.7 1.3 0.1
v 0.9 1.3 0.1
v 1 1.3 0.1
v 0.5 1.3 -5.96046e-08
v 0.7 1.3 -5.96046e-08
v 0.9 1.3 -5.96046e-08
v 1 1.3 -5.96046e-08
v 0.9 1.3 -0.1
v 1 1.3 -0.1
v 0.9 1.3 -0.2
v 1 1.3 -0.2
v 0.4 1.4 0.7
v 0.5 1.4 0.7
v 0.4 1.4 0.6
v 0.5 1.4 0.6
v 0.3 1.4 0.5
v 0.4 1.4 0.5
v 0.5 1.4 0.5
v 0.6 1.4 0.5
v 0.3 1.4 0.3
v 0.4 1.4 0.3
v 0.5 1.4 0.3
v 0.6 1.4 0.3
v 0.4 1.4 0.2
v 0.5 1.4 0.2
v 0.4 1.4 0.1
v 0.5 1.4 0.1
v 0.4 1.7 0.6
v 0.5 1.7 0.6
v 0.4 1.7 0.2
v 0.5 1.7 0.2
v 0.9 1.7 -5.96046e-08
v 1 1.7 -5.96046e-08
v 0.9 1.7 -0.1
v 1 1.7 -0.1
v 0.8 1.8 -5.96046e-08
v 0.9 1.8 -5.96046e-08
v 0.8 1.8 -0.1
v 0.9 1.8 -0.1
v 0.7 1.9 -5.96046e-08
v 0.8 1.9 -5.96046e-08
v 0.7 1.9 -0.1
v 0.8 1.9 -0.1

# faces
f 3/5/1 2/5/1 1/5/1
f 4/5/1 2/5/1 3/5/1
f 7/5/1 6/5/1 5/5/1
f 8/5/1 6/5/1 7/5/1
f 12/5/1 10/5/1 9/5/1
f 13/5/1 10/5/1 12/5/1
f 17/5/1 16/5/1 15/5/1
f 18/5/1 16/5/1 17/5/1
f 19/5/1 12/5/1 11/5/1
f 19/5/1 13/5/1 12/5/1
f 19/5/1 14/5/1 13/5/1
f 20/5/1 14/5/1 19/5/1
f 21/5/1 14/5/1 20/5/1
f 22/5/1 14/5/1 21/5/1
f 23/5/1 21/5/1 20/5/1
f 24/5/1 21/5/1 23/5/1
f 29/8/1 26/8/1 25/8/1
f 30/8/1 26/8/1 29/8/1
f 31/8/1 28/8/1 27/8/1
f 32/8/1 28/8/1 31/8/1
f 33/2/1 30/2/1 29/2/1
f 34/2/1 30/2/1 33/2/1
f 35/2/1 32/2/1 31/2/1
f 36/2/1 32/2/1 35/2/1
f 37/4/1 34/4/1 33/4/1
f 38/4/1 36/4/1 35/4/1
f 39/4/1 37/4/1 33/4/1
f 39/4/1 38/4/1 37/4/1
f 40/4/1 38/4/1 39/4/1
f 41/4/1 36/4/1 38/4/1
f 41/4/1 38/4/1 40/4/1
f 42/4/1 36/4/1 41/4/1
f 43/5/1 40/5/1 39/5/1
f 44/5/1 40/5/1 43/5/1
f 45/5/1 42/5/1 41/5/1
f 46/5/1 42/5/1 45/5/1
f 49/5/1 48/5/1 47/5/1
f 50/5/1 48/5/1 49/5/1
f 56/5/1 52/5/1 51/5/1
f 56/5/1 51/5/1 50/5/1
f 57/5/1 52/5/1 56/5/1
f 58/5/1 52/5/1 57/5/1
f 59/5/1 54/5/1 53/5/1
f 59/5/1 55/5/1 54/5/1
f 60/5/1 55/5/1 59/5/1
f 61/5/1 55/5/1 60/5/1
f 62/3/1 58/3/1 57/3/1
f 62/1/1 59/1/1 58/1/1
f 63/3/1 60/3/1 59/3/1
f 63/1/1 59/1/1 62/1/1
f 64/3/1 62/3/1 57/3/1
f 64/3/1 63/3/1 62/3/1
f 65/3/1 60/3/1 63/3/1
f 65/3/1 63/3/1 64/3/1
f 68/8/1 67/8/1 66/8/1
f 69/8/1 67/8/1 68/8/1
f 72/5/1 71/5/1 70/5/1
f 73/5/1 71/5/1 72/5/1
f 76/5/1 75/5/1 74/5/1
f 77/5/1 75/5/1 76/5/1
f 80/7/1 79/7/1 78/7/1
f 81/7/1 79/7/1 80/7/1
f 84/7/1 83/7/1 82/7/1
f 85/7/1 83/7/1 84/7/1
f 88/6/1 87/6/1 86/6/1
f 89/6/1 87/6/1 88/6/1
f 94/6/1 92/6/1 91/6/1
f 94/6/1 93/6/1 92/6/1
f 94/6/1 91/6/1 90/6/1
f 95/6/1 93/6/1 94/6/1
f 96/6/1 93/6/1 95/6/1
f 97/6/1 93/6/1 96/6/1
f 98/7/1 96/7/1 95/7/1
f 99/7/1 96/7/1 98/7/1
f 100/5/2 101/5/2 102/5/2
f 102/5/2 101/5/2 103/5/2
f 104/5/2 105/5/2 106/5/2
f 106/5/2 105/5/2 107/5/2
f 108/5/2 109/5/2 110/5/2
f 110/5/2 109/5/2 111/5/2
f 112/8/2 113/8/2 116/8/2
f 116/8/2 113/8/2 117/8/2
f 114/2/2 115/2/2 118/2/2
f 118/2/2 115/2/2 119/2/2
f 116/2/2 117/2/2 120/2/2
f 120/2/2 117/2/2 121/2/2
f 118/4/2 119/4/2 122/4/2
f 120/4/2 121/4/2 123/4/2
f 118/4/2 122/4/2 124/4/2
f 122/4/2 123/4/2 124/4/2
f 124/4/2 123/4/2 125/4/2
f 123/4/2 121/4/2 126/4/2
f 125/4/2 123/4/2 126/4/2
f 126/4/2 121/4/2 127/4/2
f 124/5/2 125/5/2 128/5/2
f 128/5/2 125/5/2 129/5/2
f 126/5/2 127/5/2 130/5/2
f 130/5/2 127/5/2 131/5/2
f 132/5/2 133/5/2 134/5/2
f 134/5/2 133/5/2 135/5/2
f 136/5/2 137/5/2 141/5/2
f 135/5/2 136/5/2 141/5/2
f 141/5/2 137/5/2 142/5/2
f 142/5/2 137/5/2 143/5/2
f 138/5/2 139/5/2 144/5/2
f 139/5/2 140/5/2 144/5/2
f 144/5/2 140/5/2 145/5/2
f 145/5/2 140/5/2 146/5/2
f 142/3/2 143/3/2 147/3/2
f 143/1/2 144/1/2 147/1/2
f 144/3/2 145/3/2 148/3/2
f 147/1/2 144/1/2 148/1/2
f 142/3/2 147/3/2 149/3/2
f 147/3/2 148/3/2 149/3/2
f 148/3/2 145/3/2 150/3/2
f 149/3/2 148/3/2 150/3/2
f 151/8/2 152/8/2 153/8/2
f 153/8/2 152/8/2 154/8/2
f 155/5/2 156/5/2 158/5/2
f 158/5/2 156/5/2 159/5/2
f 157/5/2 158/5/2 161/5/2
f 159/5/2 160/5/2 161/5/2
f 158/5/2 159/5/2 161/5/2
f 161/5/2 160/5/2 162/5/2
f 162/5/2 160/5/2 163/5/2
f 163/5/2 160/5/2 164/5/2
f 162/5/2 163/5/2 165/5/2
f 165/5/2 163/5/2 166/5/2
f 167/8/2 168/8/2 169/8/2
f 169/8/2 168/8/2 170/8/2
f 171/5/2 172/5/2 173/5/2
f 173/5/2 172/5/2 174/5/2
f 175/7/2 176/7/2 177/7/2
f 177/7/2 176/7/2 178/7/2
f 179/7/2 180/7/2 181/7/2
f 181/7/2 180/7/2 182/7/2
f 183/6/2 184/6/2 186/6/2
f 186/6/2 184/6/2 187/6/2
f 185/6/2 186/6/2 189/6/2
f 187/6/2 188/6/2 189/6/2
f 186/6/2 187/6/2 189/6/2
f 189/6/2 188/6/2 190/6/2
f 190/6/2 188/6/2 191/6/2
f 191/6/2 188/6/2 192/6/2
f 190/7/2 191/7/2 193/7/2
f 193/7/2 191/7/2 194/7/2
f 197/5/3 196/5/3 195/5/3
f 198/5/3 196/5/3 197/5/3
f 200/5/3 199/5/3 198/5/3
f 201/5/3 199/5/3 200/5/3
f 203/5/3 202/5/3 201/5/3
f 204/5/3 202/5/3 203/5/3
f 206/5/3 205/5/3 204/5/3
f 207/5/3 205/5/3 206/5/3
f 210/5/3 209/5/3 208/5/3
f 211/5/3 209/5/3 210/5/3
f 218/5/3 213/5/3 212/5/3
f 219/5/3 213/5/3 218/5/3
f 222/8/3 215/8/3 214/8/3
f 222/2/3 216/2/3 215/2/3
f 223/4/3 217/4/3 216/4/3
f 223/2/3 216/2/3 222/2/3
f 224/5/3 219/5/3 218/5/3
f 224/4/3 217/4/3 223/4/3
f 224/5/3 218/5/3 217/5/3
f 225/5/3 219/5/3 224/5/3
f 226/5/3 219/5/3 225/5/3
f 227/3/3 221/3/3 220/3/3
f 228/3/3 221/3/3 227/3/3
f 229/5/3 226/5/3 225/5/3
f 230/5/3 226/5/3 229/5/3
f 231/8/3 222/8/3 214/8/3
f 232/8/3 222/8/3 231/8/3
f 237/5/3 234/5/3 233/5/3
f 238/5/3 234/5/3 237/5/3
f 239/5/3 236/5/3 235/5/3
f 240/5/3 236/5/3 239/5/3
f 245/5/3 242/5/3 241/5/3
f 246/5/3 242/5/3 245/5/3
f 247/5/3 244/5/3 243/5/3
f 248/5/3 244/5/3 247/5/3
f 253/8/3 250/8/3 249/8/3
f 254/2/3 251/2/3 250/2/3
f 254/8/3 250/8/3 253/8/3
f 255/4/3 252/4/3 251/4/3
f 255/2/3 251/2/3 254/2/3
f 256/4/3 252/4/3 255/4/3
f 259/8/3 258/8/3 257/8/3
f 260/8/3 258/8/3 259/8/3
f 263/5/3 262/5/3 261/5/3
f 264/5/3 262/5/3 263/5/3
f 267/6/3 266/6/3 265/6/3
f 268/6/3 266/6/3 267/6/3
f 274/7/3 272/7/3 271/7/3
f 275/7/3 272/7/3 274/7/3
f 277/5/3 270/5/3 269/5/3
f 278/5/3 270/5/3 277/5/3
f 280/7/3 274/7/3 273/7/3
f 281/7/3 274/7/3 280/7/3
f 282/6/3 278/6/3 277/6/3
f 282/6/3 277/6/3 276/6/3
f 283/6/3 278/6/3 282/6/3
f 284/7/3 280/7/3 279/7/3
f 285/7/3 280/7/3 284/7/3
f 286/5/4 287/5/4 288/5/4
f 288/5/4 287/5/4 289/5/4
f 289/5/4 290/5/4 291/5/4
f 291/5/4 290/5/4 292/5/4
f 292/5/4 293/5/4 294/5/4
f 294/5/4 293/5/4 295/5/4
f 295/5/4 296/5/4 297/5/4
f 297/5/4 296/5/4 298/5/4
f 299/8/4 300/8/4 303/8/4
f 300/2/4 301/2/4 303/2/4
f 301/4/4 302/4/4 304/4/4
f 303/2/4 301/2/4 304/2/4
f 304/4/4 302/4/4 305/4/4
f 299/8/4 303/8/4 306/8/4
f 306/8/4 303/8/4 307/8/4
f 308/5/4 309/5/4 312/5/4
f 312/5/4 309/5/4 313/5/4
f 310/5/4 311/5/4 314/5/4
f 314/5/4 311/5/4 315/5/4
f 316/5/4 317/5/4 320/5/4
f 320/5/4 317/5/4 321/5/4
f 318/5/4 319/5/4 322/5/4
f 322/5/4 319/5/4 323/5/4
f 324/5/4 325/5/4 330/5/4
f 330/5/4 325/5/4 331/5/4
f 326/8/4 327/8/4 334/8/4
f 327/2/4 328/2/4 335/2/4
f 334/8/4 327/8/4 335/8/4
f 328/4/4 329/4/4 336/4/4
f 335/2/4 328/2/4 336/2/4
f 329/5/4 330/5/4 337/5/4
f 336/4/4 329/4/4 337/4/4
f 330/5/4 331/5/4 337/5/4
f 337/5/4 331/5/4 338/5/4
f 338/5/4 331/5/4 339/5/4
f 332/3/4 333/3/4 340/3/4
f 340/3/4 333/3/4 341/3/4
f 338/5/4 339/5/4 342/5/4
f 342/5/4 339/5/4 343/5/4
f 344/5/4 345/5/4 348/5/4
f 348/5/4 345/5/4 349/5/4
f 346/8/4 347/8/4 350/8/4
f 350/8/4 347/8/4 351/8/4
f 352/5/4 353/5/4 354/5/4
f 354/5/4 353/5/4 355/5/4
f 358/7/4 359/7/4 361/7/4
f 361/7/4 359/7/4 362/7/4
f 356/5/4 357/5/4 364/5/4
f 364/5/4 357/5/4 365/5/4
f 360/7/4 361/7/4 367/7/4
f 367/7/4 361/7/4 368/7/4
f 364/6/4 365/6/4 369/6/4
f 363/6/4 364/6/4 369/6/4
f 369/6/4 365/6/4 370/6/4
f 366/7/4 367/7/4 371/7/4
f 371/7/4 367/7/4 372/7/4
f 373/6/4 374/6/4 375/6/4
f 375/6/4 374/6/4 376/6/4
f 379/8/5 378/8/5 377/8/5
f 380/8/5 378/8/5 379/8/5
f 383/8/5 382/8/5 381/8/5
f 384/8/5 382/8/5 383/8/5
f 386/8/5 385/8/5 384/8/5
f 387/8/5 385/8/5 386/8/5
f 390/4/5 389/4/5 388/4/5
f 391/4/5 389/4/5 390/4/5
f 396/5/5 393/5/5 392/5/5
f 397/5/5 393/5/5 396/5/5
f 398/5/5 395/5/5 394/5/5
f 399/5/5 395/5/5 398/5/5
f 402/5/5 401/5/5 400/5/5
f 403/5/5 401/5/5 402/5/5
f 408/5/5 405/5/5 404/5/5
f 409/5/5 405/5/5 408/5/5
f 410/5/5 407/5/5 406/5/5
f 411/5/5 407/5/5 410/5/5
f 416/5/5 413/5/5 412/5/5
f 417/5/5 413/5/5 416/5/5
f 418/5/5 415/5/5 414/5/5
f 419/5/5 415/5/5 418/5/5
f 422/5/5 421/5/5 420/5/5
f 423/5/5 421/5/5 422/5/5
f 426/6/5 425/6/5 424/6/5
f 427/6/5 425/6/5 426/6/5
f 430/5/5 429/5/5 428/5/5
f 431/5/5 429/5/5 430/5/5
f 434/5/5 433/5/5 432/5/5
f 435/5/5 433/5/5 434/5/5
f 438/5/5 437/5/5 436/5/5
f 439/5/5 437/5/5 438/5/5
f 444/5/5 441/5/5 440/5/5
f 445/5/5 441/5/5 444/5/5
f 446/6/5 443/6/5 442/6/5
f 447/6/5 443/6/5 446/6/5
f 450/6/5 449/6/5 448/6/5
f 451/6/5 449/6/5 450/6/5
f 454/5/5 453/5/5 452/5/5
f 455/5/5 453/5/5 454/5/5
f 458/5/5 457/5/5 456/5/5
f 459/5/5 457/5/5 458/5/5
f 462/7/5 461/7/5 460/7/5
f 463/7/5 461/7/5 462/7/5
f 466/7/5 465/7/5 464/7/5
f 467/7/5 465/7/5 466/7/5
f 468/8/6 469/8/6 470/8/6
f 470/8/6 469/8/6 471/8/6
f 472/8/6 473/8/6 474/8/6
f 474/8/6 473/8/6 475/8/6
f 476/5/6 477/5/6 478/5/6
f 478/5/6 477/5/6 479/5/6
f 480/5/6 481/5/6 482/5/6
f 482/5/6 481/5/6 483/5/6
f 484/5/6 485/5/6 486/5/6
f 486/5/6 485/5/6 487/5/6
f 488/5/6 489/5/6 490/5/6
f 490/5/6 489/5/6 491/5/6
f 492/5/6 493/5/6 494/5/6
f 494/5/6 493/5/6 495/5/6
f 496/5/6 497/5/6 500/5/6
f 500/5/6 497/5/6 501/5/6
f 498/5/6 499/5/6 502/5/6
f 502/5/6 499/5/6 503/5/6
f 504/5/6 505/5/6 508/5/6
f 508/5/6 505/5/6 509/5/6
f 506/5/6 507/5/6 510/5/6
f 510/5/6 507/5/6 511/5/6
f 512/5/6 513/5/6 516/5/6
f 516/5/6 513/5/6 517/5/6
f 514/6/6 515/6/6 518/6/6
f 518/6/6 515/6/6 519/6/6
f 520/6/6 521/6/6 522/6/6
f 522/6/6 521/6/6 523/6/6
f 524/5/6 525/5/6 526/5/6
f 526/5/6 525/5/6 527/5/6
f 528/5/6 529/5/6 532/5/6
f 532/5/6 529/5/6 533/5/6
f 530/5/6 531/5/6 534/5/6
f 534/5/6 531/5/6 535/5/6
f 536/5/6 537/5/6 538/5/6
f 538/5/6 537/5/6 539/5/6
f 540/3/6 541/3/6 542/3/6
f 542/3/6 541/3/6 543/3/6
f 544/7/6 545/7/6 546/7/6
f 546/7/6 545/7/6 547/7/6
f 548/7/6 549/7/6 550/7/6
f 550/7/6 549/7/6 551/7/6
f 552/7/6 553/7/6 554/7/6
f 554/7/6 553/7/6 555/7/6
